[h264 @ 0x55641343c400] Reinit context to 1920x1088, pix_fmt: yuv420p
Input #0, mov,mp4,m4a,3gp,3g2,mj2, from '/var/www/html/project/media/video/original/20230515_235029.mp4':
  Metadata:
    major_brand     : mp42
    minor_version   : 0
    compatible_brands: isommp42
    creation_time   : 2023-05-15T21:51:00.000000Z
    com.android.version: 13
    com.android.capture.fps: 30.000000
  Duration: 00:00:29.02, start: 0.000000, bitrate: 14238 kb/s
    Stream #0:0(eng): Video: h264 (High), 1 reference frame (avc1 / 0x31637661), yuv420p(tv, bt709, left), 1920x1080 (1920x1088), 13989 kb/s, 30 fps, 30 tbr, 90k tbn, 180k tbc (default)
    Metadata:
      creation_time   : 2023-05-15T21:51:00.000000Z
      handler_name    : VideoHandle
    Stream #0:1(eng): Audio: aac (LC) (mp4a / 0x6134706D), 48000 Hz, stereo, fltp, 256 kb/s (default)
    Metadata:
      creation_time   : 2023-05-15T21:51:00.000000Z
      handler_name    : SoundHandle
Input #1, png_pipe, from '/var/www/html/project/static/images/templates/logo.png':
  Duration: N/A, bitrate: N/A
    Stream #1:0: Video: png, 1 reference frame, rgba(pc), 1920x1080 [SAR 2835:2835 DAR 16:9], 25 tbr, 25 tbn, 25 tbc
[h264 @ 0x55641344b700] Reinit context to 1280x720, pix_fmt: yuv420p
Input #2, mov,mp4,m4a,3gp,3g2,mj2, from '/var/www/html/project/static/images/templates/Codino.mp4':
  Metadata:
    major_brand     : mp42
    minor_version   : 1
    compatible_brands: isommp41mp42
    creation_time   : 2021-07-11T07:02:58.000000Z
  Duration: 00:00:02.00, start: 0.000000, bitrate: 1007 kb/s
    Stream #2:0(ita): Audio: aac (LC) (mp4a / 0x6134706D), 44100 Hz, stereo, fltp, 102 kb/s (default)
    Metadata:
      creation_time   : 2021-07-11T07:02:58.000000Z
      handler_name    : Core Media Audio
    Stream #2:1(und): Video: h264 (High), 1 reference frame (avc1 / 0x31637661), yuv420p(tv, bt709, progressive, left), 1280x720 [SAR 1:1 DAR 16:9], 813 kb/s, 25 fps, 25 tbr, 25k tbn, 50k tbc (default)
    Metadata:
      creation_time   : 2021-07-11T07:02:58.000000Z
      handler_name    : Core Media Video
[Parsed_scale_0 @ 0x55641344c380] w:1280 h:720 flags:'bilinear' interl:0
[Parsed_scale_2 @ 0x556413476ac0] w:1280 h:720 flags:'bilinear' interl:0
[Parsed_scale_4 @ 0x5564134e0a40] w:1280 h:720 flags:'bilinear' interl:0
Stream mapping:
  Stream #0:0 (h264) -> scale
  Stream #0:1 (aac) -> concat:in0:a0
  Stream #1:0 (png) -> scale
  Stream #2:0 (aac) -> concat:in1:a0
  Stream #2:1 (h264) -> scale
  concat:out:v0 -> Stream #0:0 (libx264)
  concat:out:a0 -> Stream #0:1 (aac)
Press [q] to stop, [?] for help
[h264 @ 0x556413612700] Reinit context to 1920x1088, pix_fmt: yuv420p
[h264 @ 0x5564137cc540] Reinit context to 1280x720, pix_fmt: yuv420p
[Parsed_scale_0 @ 0x556414e4bc80] w:1280 h:720 flags:'bilinear' interl:0
[Parsed_scale_2 @ 0x5564135c54c0] w:1280 h:720 flags:'bilinear' interl:0
[Parsed_scale_4 @ 0x556414e55680] w:1280 h:720 flags:'bilinear' interl:0
[graph 0 input from stream 0:0 @ 0x556414e59e80] w:1920 h:1080 pixfmt:yuv420p tb:1/90000 fr:30/1 sar:0/1 sws_param:flags=2
[graph 0 input from stream 1:0 @ 0x556414e5af00] w:1920 h:1080 pixfmt:rgba tb:1/25 fr:25/1 sar:2835/2835 sws_param:flags=2
[graph 0 input from stream 2:1 @ 0x556414e5bf80] w:1280 h:720 pixfmt:yuv420p tb:1/25000 fr:25/1 sar:1/1 sws_param:flags=2
[graph_0_in_0_1 @ 0x556414e5cf40] tb:1/48000 samplefmt:fltp samplerate:48000 chlayout:0x3
[graph_0_in_2_0 @ 0x556414e5e080] tb:1/44100 samplefmt:fltp samplerate:44100 chlayout:0x3
[Parsed_concat_7 @ 0x556414e57f00] auto-inserting filter 'auto_resampler_0' between the filter 'graph_0_in_2_0' and the filter 'Parsed_concat_7'
[Parsed_scale_0 @ 0x556414e4bc80] w:1920 h:1080 fmt:yuv420p sar:0/1 -> w:1280 h:720 fmt:yuv420p sar:0/1 flags:0x2
[Parsed_setsar_1 @ 0x556414e53d40] w:1280 h:720 sar:0/1 dar:16/9 -> sar:1/1 dar:16/9
[Parsed_scale_2 @ 0x5564135c54c0] w:1920 h:1080 fmt:rgba sar:2835/2835 -> w:1280 h:720 fmt:yuva420p sar:1/1 flags:0x2
[Parsed_setsar_3 @ 0x556414e549c0] w:1280 h:720 sar:1/1 dar:16/9 -> sar:1/1 dar:16/9
[Parsed_overlay_6 @ 0x556414e56dc0] main w:1280 h:720 fmt:yuv420p overlay w:1280 h:720 fmt:yuva420p
[Parsed_overlay_6 @ 0x556414e56dc0] [framesync @ 0x556414e56f28] Selected 1/90000 time base
[Parsed_overlay_6 @ 0x556414e56dc0] [framesync @ 0x556414e56f28] Sync level 2
[Parsed_scale_4 @ 0x556414e55680] w:1280 h:720 fmt:yuv420p sar:1/1 -> w:1280 h:720 fmt:yuv420p sar:1/1 flags:0x2
[Parsed_setsar_5 @ 0x556414e561c0] w:1280 h:720 sar:1/1 dar:16/9 -> sar:1/1 dar:16/9
[auto_resampler_0 @ 0x556414e64980] ch:2 chl:stereo fmt:fltp r:44100Hz -> ch:2 chl:stereo fmt:fltp r:48000Hz
[libx264 @ 0x556413477c80] using SAR=1/1
[libx264 @ 0x556413477c80] using cpu capabilities: MMX2 SSE2Fast SSSE3 SSE4.2 AVX FMA3 BMI2 AVX2
[libx264 @ 0x556413477c80] profile High, level 3.1
[libx264 @ 0x556413477c80] 264 - core 155 r2917 0a84d98 - H.264/MPEG-4 AVC codec - Copyleft 2003-2018 - http://www.videolan.org/x264.html - options: cabac=1 ref=1 deblock=1:0:0 analyse=0x3:0x113 me=hex subme=2 psy=1 psy_rd=1.00:0.00 mixed_ref=0 me_range=16 chroma_me=1 trellis=0 8x8dct=1 cqm=0 deadzone=21,11 fast_pskip=1 chroma_qp_offset=0 threads=22 lookahead_threads=5 sliced_threads=0 nr=0 decimate=1 interlaced=0 bluray_compat=0 constrained_intra=0 bframes=3 b_pyramid=2 b_adapt=1 b_bias=0 direct=1 weightb=1 open_gop=0 weightp=1 keyint=250 keyint_min=25 scenecut=40 intra_refresh=0 rc_lookahead=10 rc=crf mbtree=1 crf=18.0 qcomp=0.60 qpmin=0 qpmax=69 qpstep=4 ip_ratio=1.40 aq=1:1.00
Output #0, mp4, to '/var/www/html/project/media/video/watermarks/20230515_235029.mp4':
  Metadata:
    major_brand     : mp42
    minor_version   : 0
    compatible_brands: isommp42
    com.android.capture.fps: 30.000000
    com.android.version: 13
    encoder         : Lavf58.29.100
    Stream #0:0: Video: h264 (libx264), 1 reference frame (avc1 / 0x31637661), yuv420p, 1280x720 [SAR 1:1 DAR 16:9], q=-1--1, 30 fps, 15360 tbn, 30 tbc (default)
    Metadata:
      encoder         : Lavc58.54.100 libx264
    Side data:
      cpb: bitrate max/min/avg: 0/0/0 buffer size: 0 vbv_delay: -1
    Stream #0:1: Audio: aac (LC) (mp4a / 0x6134706D), 48000 Hz, stereo, fltp, delay 1024, 128 kb/s (default)
    Metadata:
      encoder         : Lavc58.54.100 aac
[Parsed_overlay_6 @ 0x556414e56dc0] [framesync @ 0x556414e56f28] Sync level 0
[Parsed_concat_7 @ 0x556414e57f00] EOF on in0:v0, 1 streams left in segment.
[Parsed_concat_7 @ 0x556414e57f00] EOF on in0:a0, 0 streams left in segment.
[Parsed_concat_7 @ 0x556414e57f00] Segment finished at pts=29018855
[Parsed_concat_7 @ 0x556414e57f00] EOF on in1:v0, 1 streams left in segment.
[Parsed_concat_7 @ 0x556414e57f00] EOF on in1:a0, 0 streams left in segment.
[Parsed_concat_7 @ 0x556414e57f00] Segment finished at pts=31037542
No more output streams to write to, finishing.
frame=  920 fps= 69 q=-1.0 Lsize=   17187kB time=00:00:31.03 bitrate=4536.1kbits/s speed=2.34x    
[AVIOContext @ 0x55641343a440] Statistics: 0 seeks, 26 writeouts
video:16640kB audio:512kB subtitle:0kB other streams:0kB global headers:0kB muxing overhead: 0.203490%
Input file #0 (/var/www/html/project/media/video/original/20230515_235029.mp4):
  Input stream #0:0 (video): 870 packets read (50702553 bytes); 870 frames decoded; 
  Input stream #0:1 (audio): 1359 packets read (927822 bytes); 1359 frames decoded (1391616 samples); 
  Total: 2229 packets (51630375 bytes) demuxed
Input file #1 (/var/www/html/project/static/images/templates/logo.png):
  Input stream #1:0 (video): 1 packets read (111578 bytes); 1 frames decoded; 
  Total: 1 packets (111578 bytes) demuxed
Input file #2 (/var/www/html/project/static/images/templates/Codino.mp4):
  Input stream #2:0 (audio): 89 packets read (26579 bytes); 87 frames decoded (89024 samples); 
  Input stream #2:1 (video): 50 packets read (203365 bytes); 50 frames decoded; 
  Total: 139 packets (229944 bytes) demuxed
Output file #0 (/var/www/html/project/media/video/watermarks/20230515_235029.mp4):
  Output stream #0:0 (video): 920 frames encoded; 920 packets muxed (17039492 bytes); 
  Output stream #0:1 (audio): 1455 frames encoded (1489824 samples); 1456 packets muxed (524547 bytes); 
  Total: 2376 packets (17564039 bytes) muxed
[AVIOContext @ 0x556413486a00] Statistics: 2 seeks, 71 writeouts
[libx264 @ 0x556413477c80] frame I:5     Avg QP:14.25  size: 74549
[libx264 @ 0x556413477c80] frame P:246   Avg QP:18.70  size: 35230
[libx264 @ 0x556413477c80] frame B:669   Avg QP:21.74  size: 11957
[libx264 @ 0x556413477c80] consecutive B-frames:  2.3%  2.0%  1.0% 94.8%
[libx264 @ 0x556413477c80] mb I  I16..4: 32.1% 15.1% 52.8%
[libx264 @ 0x556413477c80] mb P  I16..4:  9.9% 11.1%  2.8%  P16..4: 26.6% 19.7% 16.0%  0.0%  0.0%    skip:13.7%
[libx264 @ 0x556413477c80] mb B  I16..4:  2.4%  1.3%  0.1%  B16..8: 26.2% 12.6%  1.7%  direct:26.7%  skip:29.0%  L0:33.1% L1:40.6% BI:26.3%
[libx264 @ 0x556413477c80] 8x8 transform intra:41.2% inter:32.6%
[libx264 @ 0x556413477c80] coded y,uvDC,uvAC intra: 41.9% 59.4% 15.0% inter: 25.4% 37.5% 0.6%
[libx264 @ 0x556413477c80] i16 v,h,dc,p: 58% 19% 17%  6%
[libx264 @ 0x556413477c80] i8 v,h,dc,ddl,ddr,vr,hd,vl,hu: 25% 20% 22%  4%  6%  7%  5%  6%  5%
[libx264 @ 0x556413477c80] i4 v,h,dc,ddl,ddr,vr,hd,vl,hu: 27% 17% 13%  6%  8%  8%  7%  8%  6%
[libx264 @ 0x556413477c80] i8c dc,h,v,p: 53% 19% 23%  5%
[libx264 @ 0x556413477c80] Weighted P-Frames: Y:2.4% UV:0.0%
[libx264 @ 0x556413477c80] kb/s:4401.84
[aac @ 0x556413612280] Qavg: 2148.392
[AVIOContext @ 0x5564134433c0] Statistics: 51680169 bytes read, 2 seeks
[AVIOContext @ 0x5564134a6340] Statistics: 111578 bytes read, 0 seeks
[AVIOContext @ 0x55641344c6c0] Statistics: 1530915 bytes read, 42 seeks
